<svg width="30" height="30" viewBox="0 0 30 30" fill="#FFCC00" xmlns="http://www.w3.org/2000/svg">
<path fill-rule="evenodd" clip-rule="evenodd" d="M5.15887 14.6995V7.7968C5.15887 5.69089 6.44582 3.93596 8.43473 3.23399C8.90271 3 9.48769 3 10.0727 3H19.5493C22.2402 3 24.3461 5.10591 24.3461 7.7968V21.9532C24.3461 22.8892 23.7611 23.4741 22.9421 23.5911C22.8251 23.5911 22.7081 23.7081 22.8251 23.8251V25.1121C22.8251 26.048 22.1232 26.75 21.1872 26.75H19.6663C18.7303 26.75 18.0283 26.048 18.0283 25.1121V23.8251C18.0283 23.7081 18.0283 23.5911 17.7943 23.5911H11.8276C11.5936 23.5911 11.5936 23.7081 11.5936 23.8251V25.1121C11.5936 26.048 10.8916 26.75 9.95567 26.75H8.43473C7.49877 26.75 6.7968 26.048 6.7968 25.1121V23.7081C6.7968 23.5911 6.7968 23.5911 6.67981 23.4741C5.74385 23.3571 5.27587 22.7722 5.27587 21.7192C5.15887 19.4963 5.15887 17.0394 5.15887 14.6995ZM14.6355 17.2734H22.3571C22.5911 17.2734 22.5911 17.2734 22.5911 17.0394V8.03079C22.5911 7.7968 22.5911 7.7968 22.3571 7.7968H6.91379C6.67981 7.7968 6.67981 7.7968 6.67981 8.03078V8.03079V17.0394C6.67981 17.2734 6.7968 17.2734 6.91379 17.2734H14.6355ZM14.7525 4.52094H11.8276C11.7106 4.52094 11.5936 4.52094 11.5936 4.75493V5.92488C11.5936 6.04187 11.5936 6.04187 11.7106 6.04187H17.7943C17.8528 6.04187 17.8821 6.04187 17.8967 6.02725C17.9113 6.01262 17.9113 5.98338 17.9113 5.92489V5.92488V4.75493V4.75491C17.9113 4.63793 17.9113 4.57943 17.8821 4.55018C17.8528 4.52094 17.7943 4.52094 17.6773 4.52094H14.7525ZM8.31774 21.9532C9.13671 21.9532 9.95567 21.2512 9.95567 20.4323C9.95567 19.6133 9.2537 18.7943 8.31774 18.7943C7.49877 18.7943 6.67981 19.4963 6.67981 20.3153C6.67981 21.2512 7.49877 21.9532 8.31774 21.9532ZM22.7081 20.4323C22.7081 19.6133 22.0062 18.9113 21.0702 18.9113C20.2512 18.9113 19.4323 19.6133 19.4323 20.5493C19.4323 21.3682 20.1342 22.0702 21.0702 22.0702C21.8892 21.9532 22.7081 21.2512 22.7081 20.4323ZM2 9.90271C2.23399 9.43473 2.58497 9.31773 3.16995 9.31773C3.63793 9.31773 3.63793 9.31773 3.63793 9.78571V13.8805C3.63793 14.1145 3.63793 14.1145 3.40394 14.1145H3.05296C2.58498 14.1145 2.23399 13.9975 2 13.5296V9.90271ZM27.3879 13.1786V11.6576C27.3879 11.0727 27.3879 10.6047 27.5049 10.1367C27.5049 9.66872 27.154 9.31773 26.686 9.31773H26.101C25.984 9.31773 25.867 9.31773 25.867 9.55172V13.2956C25.867 13.3736 25.854 13.4646 25.841 13.5556C25.815 13.7375 25.789 13.9195 25.867 13.9975C25.945 14.0755 26.127 14.0495 26.309 14.0235C26.4 14.0105 26.491 13.9975 26.569 13.9975C27.037 13.9975 27.3879 13.7635 27.3879 13.1786Z" fill="#FFCC00"/>
</svg>
