<svg width="30" height="30" viewBox="0 0 30 30" fill="#FFCC00" xmlns="http://www.w3.org/2000/svg">
<path d="M22.3486 26.75C21.7703 26.75 21.0763 26.75 20.4981 26.75C19.6885 25.8247 18.8788 25.0151 17.9536 24.0899C17.8379 23.9742 17.7223 23.9742 17.6066 23.9742C16.1031 23.9742 14.5995 23.9742 12.9803 23.9742C12.6334 23.9742 12.1707 23.8586 11.9394 23.9742C11.5925 24.0899 11.4768 24.4369 11.2455 24.6682C10.5515 25.3621 9.97326 26.0561 9.27931 26.75C8.70103 26.75 8.00709 26.75 7.4288 26.75C7.4288 26.6343 7.54446 26.6343 7.54446 26.5187C8.35406 25.7091 9.048 24.8995 9.8576 23.9742C9.8576 23.9742 9.97325 23.8586 9.97325 23.7429C9.048 23.7429 8.12274 23.7429 7.19749 23.7429C5.92526 23.7429 5 22.8177 5 21.5454C5 16.5722 5 11.5989 5 6.62567C5 6.39436 5 6.2787 5.11566 6.04739C5.23132 5.4691 5.69394 5.12213 6.15657 4.77516C6.96617 4.19687 8.00709 3.96556 8.93234 3.61859C10.4359 3.27162 12.0551 3.0403 13.6743 3.0403C15.9874 2.92465 18.3006 3.0403 20.4981 3.61859C21.6546 3.8499 22.6955 4.19687 23.7364 4.77516C24.4304 5.23779 24.893 5.70042 24.893 6.62567C24.893 11.5989 24.893 16.5722 24.893 21.5454C24.893 21.7767 24.893 22.0081 24.7774 22.1237C24.546 23.049 23.7364 23.6273 22.6955 23.7429C21.7703 23.7429 20.9607 23.7429 20.0354 23.7429C19.9198 23.7429 19.9198 23.7429 19.8041 23.7429C20.0354 23.9742 20.2667 24.2055 20.4981 24.4369C21.0763 25.3621 21.6546 26.0561 22.3486 26.75ZM7.77577 11.4833C7.77577 12.5242 7.77577 13.4494 7.77577 14.4904C7.77577 14.7217 7.77577 14.7217 8.00709 14.7217C9.97326 14.7217 12.0551 14.7217 14.0213 14.7217C14.1369 14.7217 14.2526 14.7217 14.2526 14.4904C14.2526 12.5242 14.2526 10.4424 14.2526 8.47618C14.2526 8.36053 14.2526 8.24487 14.0213 8.24487C12.0551 8.24487 9.97326 8.24487 8.00709 8.24487C7.77577 8.24487 7.77577 8.36053 7.77577 8.47618C7.77577 9.40144 7.77577 10.4424 7.77577 11.4833ZM18.8788 14.7217C19.9198 14.7217 20.845 14.7217 21.8859 14.7217C22.0016 14.7217 22.1172 14.7217 22.1172 14.4904C22.1172 12.5242 22.1172 10.4424 22.1172 8.47618C22.1172 8.36053 22.1173 8.24487 21.8859 8.24487C19.9198 8.24487 17.8379 8.24487 15.8718 8.24487C15.7561 8.24487 15.6405 8.24487 15.6405 8.47618C15.6405 10.4424 15.6405 12.5242 15.6405 14.4904C15.6405 14.606 15.6405 14.7217 15.8718 14.7217C16.797 14.7217 17.8379 14.7217 18.8788 14.7217ZM11.4768 19.001C11.4768 17.9601 10.6672 17.1505 9.62628 17.1505C8.58537 17.1505 7.77577 17.9601 7.77577 19.001C7.77577 20.0419 8.58537 20.8515 9.62628 20.8515C10.6672 20.8515 11.4768 20.0419 11.4768 19.001ZM20.1511 20.8515C21.192 20.8515 22.0016 20.0419 22.0016 19.001C22.0016 17.9601 21.192 17.1505 20.1511 17.1505C19.1102 17.1505 18.3006 17.9601 18.3006 19.001C18.3006 20.0419 19.2258 20.8515 20.1511 20.8515Z" fill="#FFCC00"/>
</svg>
