<svg width="30" height="30" viewBox="0 0 30 30" fill="none" xmlns="http://www.w3.org/2000/svg">
<path fill-rule="evenodd" clip-rule="evenodd" d="M23.75 10.875C23.75 5.125 19.125 2 15 2C10.875 2 6.25 5.125 6.25 10.875C6.25 14.625 8.875 18.625 14.25 22.625C14.625 23 15.25 23 15.75 22.625C21.125 18.5 23.75 14.625 23.75 10.875ZM23.75 25.75C23.75 25.125 23.125 24.5 22.5 24.5H7.5C6.75 24.5 6.25 25.125 6.25 25.75C6.25 26.375 6.75 27 7.5 27H22.5C23.125 27 23.75 26.375 23.75 25.75Z" fill="#6B00FF"/>
<path d="M15 13.25C16.3807 13.25 17.5 12.1307 17.5 10.75C17.5 9.36929 16.3807 8.25 15 8.25C13.6193 8.25 12.5 9.36929 12.5 10.75C12.5 12.1307 13.6193 13.25 15 13.25Z" fill="white"/>
</svg>
