<svg width="30" height="30" viewBox="0 0 30 30" fill="#FFCC00" xmlns="http://www.w3.org/2000/svg">
<path fill-rule="evenodd" clip-rule="evenodd" d="M13.0758 19.4331H27.4697V20.1528V20.2727C27.1098 22.1919 25.5505 23.5114 23.6313 23.5114H3.83965C3.2399 23.5114 3 23.1515 3 22.6717V19.553C3 19.4331 3 19.3131 3.2399 19.3131H9.35732C9.95707 19.3131 10.197 19.0732 10.197 18.4735V13.4356C10.197 12.8359 9.95707 12.596 9.35732 12.596H3.2399C3.11995 12.596 3.05997 12.596 3.02999 12.566C3 12.536 3 12.476 3 12.3561V10.4369C3 9.83712 3.2399 9.59722 3.83965 9.59722H8.51768C8.56349 9.59722 8.59181 9.61472 8.61599 9.62967C8.65513 9.65386 8.68344 9.67136 8.75758 9.59722C8.51768 9.29735 8.30776 8.99747 8.09785 8.6976C7.88794 8.39773 7.67803 8.09785 7.43813 7.79798C7.07828 7.31818 7.07828 6.95833 7.55808 6.59849C8.39772 5.99874 9.11742 5.39899 9.83711 4.79925L9.83712 4.79925L9.83712 4.79924L9.83712 4.79924C9.95707 4.67929 10.077 4.55934 10.077 4.43939H8.75758C8.39773 4.43939 8.03788 4.07955 8.03788 3.7197C8.03788 3.35985 8.39773 3.11995 8.87752 3H14.0354C14.3952 3 14.7551 3.35985 14.7551 3.7197C14.7551 4.07955 14.5152 4.43939 14.0354 4.43939H12.596C12.476 4.43939 12.3561 4.43939 12.2361 4.55934C11.2765 5.51894 10.197 6.35859 9.11742 7.19823C8.99748 7.31818 8.99748 7.43813 9.11742 7.55808C9.35732 7.85795 9.56723 8.15783 9.77715 8.4577C9.98706 8.75758 10.197 9.05745 10.4369 9.35732C10.5568 9.59722 10.6768 9.59722 10.7967 9.59722H16.5543C16.839 9.59722 16.9736 9.67233 17.1362 9.76311L17.1362 9.76311L17.1362 9.76312C17.1791 9.78706 17.2239 9.81209 17.274 9.83712C18.0477 10.3787 18.7715 10.9702 19.4776 11.5473C19.8662 11.8648 20.2494 12.178 20.6326 12.476C20.6326 12.476 20.7525 12.476 20.7525 12.596H20.5126H12.9558C12.3561 12.596 12.1162 12.8359 12.1162 13.4356V18.4735C12.1162 19.1932 12.476 19.4331 13.0758 19.4331ZM26.5101 25.3106C26.9899 25.3106 27.2298 25.4306 27.4697 25.7904V26.2702C27.2298 26.6301 26.9899 26.75 26.5101 26.75H3.9596C3.35985 26.75 3 26.5101 3 26.0303C3 25.5505 3.35985 25.3106 3.9596 25.3106H26.5101ZM26.9899 17.9937C26.75 17.6338 26.5101 17.274 26.1503 16.9141C25.7767 16.6153 25.4148 16.3165 25.0573 16.0213L25.0572 16.0212C24.2667 15.3685 23.4977 14.7335 22.6717 14.1553C22.5518 14.0354 22.5518 14.0354 22.4318 14.0354H13.7955C13.6755 14.0354 13.5556 14.0354 13.5556 14.2753V17.7538C13.5556 17.8737 13.5556 17.9937 13.7955 17.9937H26.75H26.9899ZM8.63763 17.9937H5.87879H3.2399C3.11995 17.9937 3 17.8737 3 17.7538V14.1553C3 14.0354 3.11995 14.0354 3.2399 14.0354H8.63763C8.87752 14.0354 8.87752 14.1553 8.87752 14.2753V17.7538C8.87752 17.9937 8.75758 17.9937 8.63763 17.9937Z" fill="#FFCC00"/>
</svg>
