<svg width="30" height="30" viewBox="0 0 30 30" fill="#FFFFFF" xmlns="http://www.w3.org/2000/svg">
<path d="M25.625 3.75H25.375L19.875 5.875C19.125 6.25 18.375 6.25 17.5 6L11.75 3.875C11.375 3.75 11 3.75 10.75 3.875L5.25 5.75C4.375 6.125 3.75 7 3.75 7.875V25.625C3.75 26 4 26.25 4.375 26.25H4.625L10.125 24.125C10.875 23.875 11.75 23.875 12.5 24.125L17.75 26C18.5 26.25 19.25 26.25 20 26L24.75 24.375C25.75 24 26.375 23.125 26.375 22.125V4.375C26.25 4 26 3.75 25.625 3.75ZM12.5 6.875L17.5 8.625V23.25L12.5 21.5V6.875ZM6.25 8.125L10 6.875V21.5L6.25 23V8.125ZM23.75 21.875L20 23.125V8.625L23.75 7.125V21.875Z" fill="#FFFFFF"/>
</svg>
