<svg width="30" height="30" viewBox="0 0 30 30" fill="#FFCC00" xmlns="http://www.w3.org/2000/svg">
<path d="M16.75 7C18 7 19.125 5.875 19.125 4.625C19.125 3.375 18 2.25 16.75 2.25C15.5 2.25 14.375 3.375 14.375 4.625C14.375 5.875 15.5 7 16.75 7ZM12.375 11L9.37499 26.375C9.25 27.125 9.74999 27.75 10.5 27.75H10.625C11.125 27.75 11.625 27.375 11.75 26.875L13.625 18.25L16.125 20.625V26.5C16.125 27.125 16.625 27.625 17.25 27.625C17.875 27.625 18.375 27.125 18.375 26.5V19.75C18.375 19.125 18.125 18.5 17.625 18L15.875 16.375L16.625 12.875C17.875 14.375 19.75 15.375 21.75 15.75C22.5 15.875 23.125 15.25 23.125 14.625C23.125 14 22.75 13.5 22.125 13.5C20.375 13.25 18.875 12.125 18 10.75L17 8.75C16.375 7.75 15 7.25 13.875 7.75L9.37499 9.625C8.5 10 7.875 10.875 7.875 11.875V14.625C7.875 15.25 8.37499 15.75 8.99999 15.75C9.62499 15.75 10.125 15.25 10.125 14.625V11.875L12.375 11Z" fill="#FFCC00"/>
</svg>
