<svg width="30" height="30" viewBox="0 0 30 30" fill="none" xmlns="http://www.w3.org/2000/svg">
<path d="M5.25 23H25.25C25.9375 23 26.5 22.4375 26.5 21.75C26.5 21.0625 25.9375 20.5 25.25 20.5H5.25C4.5625 20.5 4 21.0625 4 21.75C4 22.4375 4.5625 23 5.25 23ZM5.25 16.75H25.25C25.9375 16.75 26.5 16.1875 26.5 15.5C26.5 14.8125 25.9375 14.25 25.25 14.25H5.25C4.5625 14.25 4 14.8125 4 15.5C4 16.1875 4.5625 16.75 5.25 16.75ZM4 9.25C4 9.9375 4.5625 10.5 5.25 10.5H25.25C25.9375 10.5 26.5 9.9375 26.5 9.25C26.5 8.5625 25.9375 8 25.25 8H5.25C4.5625 8 4 8.5625 4 9.25Z" fill="#6B00FF"/>
</svg>
