<svg width="30" height="30" viewBox="0 0 30 30" fill="#FFCC00" xmlns="http://www.w3.org/2000/svg">
<path d="M22.725 12.5L20.6 6.65C20.2375 5.6625 19.3 5 18.25 5H16.25C15.5625 5 15 5.5625 15 6.25C15 6.9375 15.5625 7.5 16.25 7.5H18.25L20.075 12.5H14.0625L13.6125 11.25H13.725C14.4125 11.25 14.975 10.6875 14.975 10C14.975 9.3125 14.4125 8.75 13.725 8.75H10C9.3125 8.75 8.75 9.3125 8.75 10C8.75 10.6875 9.3125 11.25 10 11.25H10.9375L13.2125 17.5H12.375C11.825 14.7125 9.4875 12.65 6.5625 12.5125C3.0625 12.3375 0 15.25 0 18.75C0 22.25 2.75 25 6.25 25C9.325 25 11.8125 22.8875 12.375 20H17.625C18.175 22.7875 20.5125 24.85 23.4375 24.9875C26.9375 25.15 30 22.25 30 18.7375C30 15.2375 27.25 12.4875 23.75 12.4875H22.725V12.5ZM9.775 20C9.25 21.5375 7.775 22.6 6 22.4875C4.1375 22.375 2.5875 20.8 2.5 18.925C2.4125 16.7375 4.0875 15 6.25 15C7.9125 15 9.275 16.0375 9.775 17.5H7.5C6.8125 17.5 6.25 18.0625 6.25 18.75C6.25 19.4375 6.8125 20 7.5 20H9.775ZM17.625 17.5H15.875L14.9625 15H18.75C18.2 15.725 17.8 16.5625 17.625 17.5ZM23.6 22.5C21.675 22.425 20.05 20.7875 20 18.85C19.975 17.65 20.4875 16.6 21.3125 15.9L22.0875 18.025C22.325 18.675 23.0375 19.0125 23.6875 18.775C24.3375 18.5375 24.675 17.825 24.4375 17.175L23.65 15.0125C23.65 15.0125 23.65 15.0125 23.6625 15C25.8125 14.95 27.5125 16.6125 27.5125 18.75C27.5 20.9 25.775 22.575 23.6 22.5Z" fill="#FFCC00"/>
</svg>
