<svg width="139" height="40" viewBox="0 0 139 40" fill="none" xmlns="http://www.w3.org/2000/svg">
<path fill-rule="evenodd" clip-rule="evenodd" d="M5.3269 19.7579V8.13567C5.29434 6.43365 5.80424 4.76543 6.7828 3.37246C7.76135 1.97949 9.1578 0.934064 10.77 0.387491C11.6273 0.113482 12.5239 -0.0174069 13.4238 8.23151e-05H29.2494C30.3121 -0.0128664 31.3667 0.186576 32.3513 0.586706C33.3359 0.986836 34.2306 1.57959 34.983 2.33019C35.7354 3.08079 36.3303 3.97411 36.7328 4.95773C37.1353 5.94135 37.3373 6.99546 37.3269 8.05819V31.8451C37.3694 32.5409 37.1343 33.2252 36.6732 33.748C36.2121 34.2709 35.5625 34.5896 34.8669 34.6345C34.5957 34.6345 34.5763 34.7894 34.5763 35.0025V37.2107C34.5926 37.5797 34.5323 37.9481 34.3991 38.2926C34.2659 38.6371 34.0628 38.9503 33.8025 39.2124C33.5423 39.4745 33.2305 39.6798 32.8869 39.8153C32.5434 39.9509 32.1754 40.0138 31.8063 40.0001H29.4238C29.0572 40.0138 28.6918 39.9514 28.3505 39.8168C28.0093 39.6822 27.6997 39.4784 27.4412 39.2181C27.1827 38.9578 26.981 38.6468 26.8489 38.3046C26.7167 37.9624 26.6568 37.5966 26.6732 37.2301V34.9831C26.6732 34.7313 26.6732 34.6538 26.3439 34.6538H16.3487C16.0388 34.6538 15.9807 34.7701 16 35.0412V37.2107C16.0163 37.5797 15.956 37.9481 15.8228 38.2926C15.6897 38.6371 15.4865 38.9503 15.2263 39.2124C14.966 39.4745 14.6543 39.6798 14.3107 39.8153C13.9671 39.9509 13.5992 40.0138 13.23 40.0001H10.77C10.4026 40.0136 10.0363 39.9513 9.69413 39.8169C9.35192 39.6825 9.04111 39.4789 8.78114 39.219C8.52117 38.959 8.31762 38.6482 8.18322 38.306C8.04882 37.9638 7.98645 37.5975 8.00002 37.2301V34.8669C8.00002 34.6538 8.00002 34.5957 7.72884 34.557C7.03474 34.4929 6.39371 34.1583 5.94427 33.6255C5.49484 33.0927 5.27307 32.4045 5.3269 31.7095V19.7579ZM21.3075 24.0001H34.2664C34.615 24.0001 34.6925 23.9032 34.6925 23.5546V8.38749C34.6925 8.07756 34.6925 7.98071 34.2857 7.98071H8.4068C8.05814 7.98071 8.00002 7.98071 8.00002 8.38749V23.5546C8.00002 23.942 8.13562 23.9807 8.48429 23.9807L21.3075 24.0001ZM21.3075 2.69258H16.3874C16.1162 2.69258 15.9807 2.69258 16 3.04124V4.97829C16 5.19136 16 5.26885 16.2712 5.26885H26.3826C26.615 5.26885 26.6732 5.26885 26.6732 4.97829V3.04124C26.6732 2.73132 26.6731 2.63446 26.2857 2.63446L21.3075 2.69258ZM10.6731 32.0001C11.201 32.0001 11.7171 31.8438 12.1562 31.5509C12.5954 31.258 12.938 30.8417 13.1409 30.3543C13.3438 29.867 13.3978 29.3305 13.2962 28.8125C13.1947 28.2945 12.942 27.8182 12.5701 27.4436C12.1982 27.069 11.7237 26.8129 11.2064 26.7076C10.6892 26.6023 10.1523 26.6524 9.66354 26.8518C9.17476 27.0512 8.75595 27.3908 8.45991 27.8278C8.16387 28.2648 8.00385 28.7797 8.00002 29.3076C8.00001 30.0183 8.28102 30.7003 8.78178 31.2047C9.28254 31.709 9.96242 31.995 10.6731 32.0001ZM34.6538 29.3076C34.6437 28.6087 34.3602 27.9416 33.8642 27.4492C33.3681 26.9567 32.699 26.6782 32 26.6732C31.4689 26.6694 30.9487 26.8239 30.5057 27.1171C30.0628 27.4102 29.7172 27.8286 29.5131 28.319C29.309 28.8094 29.2556 29.3494 29.3597 29.8703C29.4638 30.3911 29.7207 30.8691 30.0977 31.2434C30.4746 31.6176 30.9545 31.871 31.4761 31.9713C31.9977 32.0716 32.5374 32.0142 33.0262 31.8065C33.5151 31.5988 33.931 31.2502 34.2209 30.8051C34.5108 30.36 34.6615 29.8387 34.6538 29.3076ZM138.886 29.0557H126.354V34.1308H123.971V29.0557H111.709V26.7119H123.971V24.7749H115.254V13.1526H123.971V11.2155H112.523V8.91046H123.971V5.94678H126.334V8.91046H137.956V11.1768H126.334V13.1138H135.245V24.833H126.334V26.77H138.886V29.0557ZM123.971 17.8402V15.4964H117.637V17.8402H123.971ZM123.971 22.586V20.126H117.637V22.586H123.971ZM132.881 17.8402V15.4964H126.354V17.8402H132.881ZM132.881 22.586V20.126H126.354V22.586H132.881ZM64.368 12.0872H76.0872L76.0291 9.85959H64.4068V6.12109H61.9855V9.85959H50.3632V12.0097H59.5835C56.7408 15.3725 53.1525 18.0256 49.1041 19.7579L50.6925 21.54C51.7191 20.9976 52.9007 20.3003 54.2373 19.4673V28.4359H71.9806V17.9758H56.4843C58.6471 16.5352 60.5143 14.6942 61.9855 12.5521V17.7046H64.368V12.0872ZM49.8596 32.2325H76.4358V30.0242H49.8596V32.2325ZM69.5012 20.2034V22.1405H56.6392V20.2034H69.5012ZM69.5012 24.31V26.247H56.6392V24.31H69.5012ZM64.9298 14.4698C68.8025 15.7922 72.3626 17.8953 75.3898 20.6489L77.0751 18.8669C73.8783 16.1182 70.2096 13.9721 66.247 12.5327L64.9298 14.4698ZM87.6513 15.0896C89.2151 12.9026 90.3641 10.447 91.0411 7.84508L88.7167 6.74097C88.0572 9.2317 86.962 11.586 85.4818 13.695C84.041 15.8547 82.2235 17.7378 80.1162 19.2543L82.0533 21.1913C84.2417 19.4787 86.1331 17.4172 87.6513 15.0896ZM102.876 33.5497L105.259 32.4456H105.24C104.18 28.7427 102.216 25.3614 99.5254 22.6054L97.2203 23.632C98.5116 24.9086 99.6316 26.3476 100.552 27.9129L89.4915 28.649C91.8555 25.1361 93.6348 21.2635 94.7603 17.1816L92.3583 16.3681C91.2319 20.8341 89.2592 25.0425 86.5472 28.7652L83.0218 29.0557L84.029 31.7095C86.2373 31.4189 89.1235 31.1477 92.7264 30.8766L101.521 30.1792C102.057 31.2669 102.51 32.3936 102.876 33.5497ZM106.538 21.3076L108.475 19.3705C106.345 17.8687 104.507 15.9914 103.051 13.8306C101.56 11.7463 100.458 9.41027 99.7966 6.93467L97.5302 7.96131C98.2228 10.5671 99.3775 13.0274 100.939 15.2252C102.453 17.5512 104.345 19.6071 106.538 21.3076ZM0.79495 10.7909C0.441638 10.9676 0.160646 11.2615 0 11.6223V17.6659C0.126817 18.0155 0.373647 18.3086 0.696486 18.4931C1.01933 18.6775 1.39719 18.7414 1.76271 18.6732H2.28571C2.69249 18.7119 2.69249 18.5957 2.69249 18.2664V11.4093C2.69249 11.0315 2.69249 10.8427 2.59806 10.7482C2.50363 10.6538 2.31477 10.6538 1.93705 10.6538C1.55196 10.5658 1.14826 10.6143 0.79495 10.7909ZM42.615 17.201V14.6635V12.0097C42.597 11.685 42.4611 11.3779 42.2329 11.1461C42.0047 10.9143 41.6998 10.7737 41.3753 10.7507H40.4649C40.1162 10.7119 40.0194 10.8088 40.0194 11.1574V17.5303C40.0194 17.6609 39.993 17.8091 39.9669 17.9557C39.9155 18.2438 39.8653 18.5254 40.0194 18.6538C40.1731 18.7819 40.4538 18.7406 40.744 18.6979C40.8926 18.676 41.0438 18.6538 41.1816 18.6538C41.3761 18.6722 41.5723 18.6471 41.7558 18.5803C41.9394 18.5134 42.1059 18.4066 42.2431 18.2676C42.3803 18.1285 42.4848 17.9607 42.5492 17.7762C42.6135 17.5917 42.636 17.3953 42.615 17.201Z" fill="#6B00FF"/>
</svg>
