<svg width="30" height="30" viewBox="0 0 30 30" fill="#FFFFFF" xmlns="http://www.w3.org/2000/svg">
<path fill-rule="evenodd" clip-rule="evenodd" d="M21.25 11.4375C21.25 6.75 17.4125 5 15 5C12.5875 5 8.75 6.75 8.75 11.4375C8.75 14.125 10.9 17.275 15 20.5875C19.1 17.275 21.25 14.1375 21.25 11.4375ZM6.25 11.4375C6.25 5.575 10.9125 2.5 15 2.5C19.0875 2.5 23.75 5.575 23.75 11.4375C23.75 15.3375 20.8375 19.45 15 23.75C9.1625 19.45 6.25 15.3375 6.25 11.4375ZM12.5 11.25C12.5 9.875 13.625 8.75 15 8.75C15.663 8.75 16.2989 9.01339 16.7678 9.48223C17.2366 9.95107 17.5 10.587 17.5 11.25C17.5 11.913 17.2366 12.5489 16.7678 13.0178C16.2989 13.4866 15.663 13.75 15 13.75C13.625 13.75 12.5 12.625 12.5 11.25ZM7.5 25C6.80964 25 6.25 25.5596 6.25 26.25C6.25 26.9404 6.80964 27.5 7.5 27.5H22.5C23.1904 27.5 23.75 26.9404 23.75 26.25C23.75 25.5596 23.1904 25 22.5 25H7.5Z" fill="#FFFFFF"/>
</svg>
