<svg width="30" height="30" viewBox="0 0 30 30" fill="#FFCC00" xmlns="http://www.w3.org/2000/svg">
<path d="M3 15.2779V14.9086H13.8453C13.8453 14.9086 13.9125 14.9086 13.9125 14.8526C13.9067 14.8268 13.9067 14.8001 13.9125 14.7743V13.4984C13.9125 13.3193 13.9125 13.3193 13.7334 13.3193H3.26861C3.22451 13.3302 3.17841 13.3302 3.13431 13.3193C3.1288 13.2747 3.1288 13.2296 3.13431 13.185C3.17908 12.8716 3.23504 12.5582 3.30219 12.2448C3.74589 10.2868 4.67425 8.47167 6.00208 6.96589C7.3299 5.4601 9.01467 4.31194 10.9017 3.62677C11.7551 3.31689 12.6415 3.10658 13.5431 3H13.8229H13.8901V5.05938C13.8901 5.12653 13.8901 5.13772 13.8229 5.14892H13.7558C13.4015 5.19059 13.0501 5.25413 12.7037 5.33918C11.2139 5.70196 9.83008 6.40949 8.66369 7.40481C7.4973 8.40013 6.58092 9.65542 5.98834 11.0696C5.92118 11.2263 5.98834 11.2151 6.08907 11.2151H13.9237C13.9908 11.2151 14.002 11.2151 14.002 11.1368V10.5324C14.0079 10.4691 14.0079 10.4054 14.002 10.3421C13.9802 10.1677 13.9099 10.0028 13.7991 9.86633C13.6883 9.72982 13.5415 9.62711 13.3752 9.56986L11.5285 8.88713C11.4978 8.88165 11.4704 8.86474 11.4517 8.83981C11.433 8.81489 11.4245 8.78381 11.4278 8.75283V6.72703C11.415 6.60866 11.4487 6.48995 11.5218 6.39598C11.5949 6.302 11.7016 6.24011 11.8195 6.22337C12.7562 5.95922 13.7229 5.81629 14.6959 5.79807C15.5049 5.77191 16.3146 5.82439 17.1135 5.95476L18.1543 6.1898C18.2275 6.20828 18.2961 6.24167 18.3559 6.28789C18.4156 6.33411 18.4651 6.39217 18.5013 6.45841C18.5245 6.54644 18.5245 6.639 18.5013 6.72703V8.73044C18.5013 8.85356 18.5013 8.83117 18.4006 8.88713L16.6546 9.56986C16.4632 9.64008 16.2987 9.76858 16.1843 9.93725C16.0698 10.1059 16.0112 10.3063 16.0166 10.51V11.0361C16.0166 11.2375 16.0166 11.2151 16.1957 11.2151H23.9407C23.9407 11.2151 23.9967 11.2151 24.0079 11.2151L23.9184 10.8346C23.1895 9.21225 22.0277 7.82206 20.5607 6.81656C19.3609 5.97176 17.9818 5.41629 16.5315 5.19369H16.1397C16.0838 5.19369 16.0614 5.19369 16.0614 5.10415V3.02238C16.0614 3.02238 16.0614 3.02238 16.1285 3.02238H16.4195C17.2081 3.10996 17.9849 3.28258 18.7363 3.53723C21.4701 4.42501 23.7861 6.27943 25.2502 8.75283C26.0018 9.99748 26.5143 11.3716 26.7612 12.8044C26.7612 12.9723 26.7612 13.1402 26.8395 13.3081C26.7879 13.319 26.7345 13.319 26.6828 13.3081H16.1733C16.0614 13.3081 16.0614 13.3081 16.0614 13.42V14.6847C16.0614 14.8862 16.0614 14.8638 16.2405 14.8638H26.8283C26.9291 14.8638 26.9291 14.8638 26.9291 14.9645C26.9365 15.3385 26.9178 15.7124 26.8731 16.0838C26.6439 18.3181 25.7863 20.4417 24.3997 22.2086C23.0131 23.9755 21.1543 25.3134 19.0385 26.0673C17.995 26.4494 16.9018 26.6793 15.7928 26.75C15.6628 26.7329 15.5311 26.7329 15.401 26.75H14.5504C14.5026 26.7381 14.4527 26.7381 14.4049 26.75C13.8754 26.7197 13.3483 26.6562 12.8268 26.5597C11.5702 26.3432 10.3593 25.9156 9.24529 25.295C7.81661 24.5211 6.56194 23.4622 5.55894 22.1839C4.55594 20.9056 3.82594 19.4351 3.41411 17.8633C3.19858 17.0854 3.07093 16.2858 3.03358 15.4794C3.02855 15.4113 3.01731 15.3439 3 15.2779ZM24.5227 17.0351H16.0838V18.1543C16.0727 18.2323 16.0727 18.3114 16.0838 18.3894C16.121 18.5762 16.2134 18.7476 16.3491 18.8812C16.4848 19.0149 16.6575 19.1048 16.8448 19.1393L19.3071 19.7324L21.4225 20.2361C21.5208 20.251 21.6114 20.2983 21.6799 20.3704C21.7285 20.4185 21.7665 20.4762 21.7915 20.5398C21.8166 20.6034 21.8281 20.6715 21.8254 20.7397V21.6239C21.8254 21.803 21.8254 21.803 21.6463 21.803H8.24918C8.14845 21.803 8.14844 21.803 8.14844 21.7023V20.7621C8.14224 20.7138 8.14224 20.6649 8.14844 20.6166C8.1731 20.5301 8.22206 20.4525 8.28951 20.393C8.35696 20.3335 8.44007 20.2946 8.52898 20.2809L11.1368 19.6541L13.1178 19.184C13.3437 19.1365 13.5454 19.0102 13.6869 18.8278C13.8283 18.6453 13.9003 18.4185 13.8901 18.1879V17.147C13.8901 17.0911 13.8901 17.0687 13.8229 17.0687H5.54065C5.54065 17.0687 5.4623 17.0687 5.42872 17.0687C5.92297 19.231 7.1366 21.1614 8.87096 22.5441C10.6053 23.9267 12.7577 24.6797 14.9757 24.6797C17.1938 24.6797 19.3461 23.9267 21.0805 22.5441C22.8149 21.1614 24.0285 19.231 24.5227 17.0687V17.0351Z" fill="#FFCC00"/>
</svg>
